<svg width="51" height="44" viewBox="0 0 51 44" fill="none" xmlns="http://www.w3.org/2000/svg">
<g clip-path="url(#clip0_157_284)">
<rect width="50.2444" height="44" fill="#2E2E2E"/>
<path d="M3.66748 -0.381348L11.7359 -0.381347L19.8044 -0.381348L50.0575 44.3813L33.7408 44.3618L3.66748 -0.381348Z" fill="#E774DD"/>
<path d="M18.3374 23.824L25.3056 35.5599L19.0709 44.3618L2.93398 44.3618L18.3374 23.824Z" fill="#E774DD"/>
<path d="M36.2352 20.0217L28.1056 7.95999L33.3741 -0.381336L50.2444 -0.381325L36.2352 20.0217Z" fill="#E774DD"/>
<rect y="-0.381348" width="14.6699" height="44.7432" fill="white"/>
<path d="M17.6039 -0.381348H34.4743L44.1886 8.42059H17.6039V-0.381348Z" fill="white"/>
<path d="M18.3373 32.6259H35.2077L44.2203 23.824H18.3373V32.6259Z" fill="white"/>
<path d="M28.6063 8.42059H44.1663V16.1223V23.824H28.6063V8.42059Z" fill="white"/>
</g>
<defs>
<clipPath id="clip0_157_284">
<rect width="50.2444" height="44" fill="white"/>
</clipPath>
</defs>
</svg>
