<svg width="211" height="44" viewBox="0 0 211 44" fill="none" xmlns="http://www.w3.org/2000/svg">
<g clip-path="url(#clip0_525_2)">
<rect width="50.2444" height="44" fill="#2E2E2E"/>
<path d="M3.66748 -0.381348L11.7359 -0.381347L19.8044 -0.381348L50.0575 44.3813L33.7408 44.3618L3.66748 -0.381348Z" fill="#E774DD"/>
<path d="M18.3372 23.824L25.3054 35.5599L19.0707 44.3618L2.93386 44.3618L18.3372 23.824Z" fill="#E774DD"/>
<path d="M36.2349 20.0217L28.1053 7.95999L33.3738 -0.381336L50.2442 -0.381325L36.2349 20.0217Z" fill="#E774DD"/>
<rect y="-0.381348" width="14.6699" height="44.7432" fill="white"/>
<path d="M17.6038 -0.381348H34.4741L44.1885 8.42059H17.6038V-0.381348Z" fill="white"/>
<path d="M18.3372 32.6259H35.2075L44.2202 23.8239H18.3372V32.6259Z" fill="white"/>
<path d="M28.6062 8.42053H44.1662V16.1222V23.8239H28.6062V8.42053Z" fill="white"/>
</g>
<path d="M74.2444 33.5V7.83333H88.2444V10.1667H90.5777V21.8333H88.2444V24.1667H78.9111V33.5H74.2444ZM78.9111 19.5H85.9111V12.5H78.9111V19.5ZM92.9202 33.5V26.5H95.2535V19.5H97.5868V12.5H99.9202V7.83333H104.587V12.5H106.92V19.5H109.254V26.5H111.587V33.5H106.92V28.8333H97.5868V33.5H92.9202ZM99.9202 24.1667H104.587V19.5H99.9202V24.1667ZM113.92 33.5V7.83333H127.92V10.1667H130.254V21.8333H127.92V26.5H130.254V33.5H125.587V28.8333H123.253V24.1667H118.587V33.5H113.92ZM118.587 19.5H125.587V12.5H118.587V19.5ZM132.596 33.5V26.5H134.929V19.5H137.263V12.5H139.596V7.83333H144.263V12.5H146.596V19.5H148.929V26.5H151.263V33.5H146.596V28.8333H137.263V33.5H132.596ZM139.596 24.1667H144.263V19.5H139.596V24.1667ZM153.596 33.5V7.83333H167.596V10.1667H169.929V31.1667H167.596V33.5H153.596ZM165.263 28.8333V12.5H158.263V28.8333H165.263ZM172.272 31.1667V10.1667H174.605V7.83333H186.272V10.1667H188.605V31.1667H186.272V33.5H174.605V31.1667H172.272ZM176.938 28.8333H183.938V12.5H176.938V28.8333ZM190.948 33.5V26.5H193.281V21.8333H195.614V19.5H193.281V14.8333H190.948V7.83333H195.614V12.5H197.948V17.1667H200.281V12.5H202.614V7.83333H207.281V14.8333H204.948V19.5H202.614V21.8333H204.948V26.5H207.281V33.5H202.614V28.8333H200.281V24.1667H197.948V28.8333H195.614V33.5H190.948Z" fill="white"/>
<defs>
<clipPath id="clip0_525_2">
<rect width="50.2444" height="44" fill="white"/>
</clipPath>
</defs>
</svg>
